/* XPM */
static char * bitcoin32_xpm[] = {
"32 32 181 2",
"  	c None",
". 	c #6384B4",
"+ 	c #6484B5",
"@ 	c #6685B5",
"# 	c #6685B6",
"$ 	c #6585B5",
"% 	c #6383B3",
"& 	c #6281B3",
"* 	c #6483B4",
"= 	c #6585B6",
"- 	c #6686B6",
"; 	c #6787B7",
"> 	c #6584B4",
", 	c #6687B7",
"' 	c #6B8AB8",
") 	c #809AC2",
"! 	c #8CA4C8",
"~ 	c #7E99C1",
"{ 	c #6C8BB9",
"] 	c #7793BE",
"^ 	c #7390BC",
"/ 	c #6787B6",
"( 	c #6283B3",
"_ 	c #6A89B8",
": 	c #A2B5D2",
"< 	c #DEE4EE",
"[ 	c #EFF2F7",
"} 	c #D1DAE8",
"| 	c #839DC4",
"1 	c #7A96BF",
"2 	c #B5C4DB",
"3 	c #D6DEEB",
"4 	c #ABBCD6",
"5 	c #6484B4",
"6 	c #819BC2",
"7 	c #FEFEFE",
"8 	c #FDFDFE",
"9 	c #F9FAFC",
"0 	c #BFCCE0",
"a 	c #7491BC",
"b 	c #B1C1D9",
"c 	c #F7F8FA",
"d 	c #F9FAFB",
"e 	c #A9BBD5",
"f 	c #6888B7",
"g 	c #9BB0CF",
"h 	c #F4F6F9",
"i 	c #E6EAF2",
"j 	c #E6EBF3",
"k 	c #F2F4F8",
"l 	c #A8BAD5",
"m 	c #7894BE",
"n 	c #D8DFEB",
"o 	c #EEF1F6",
"p 	c #8FA6C9",
"q 	c #B7C6DC",
"r 	c #FCFCFD",
"s 	c #FBFBFC",
"t 	c #B6C5DB",
"u 	c #A4B7D3",
"v 	c #E3E9F1",
"w 	c #92A8CA",
"x 	c #8CA4C7",
"y 	c #ECF0F5",
"z 	c #DBE2ED",
"A 	c #6485B5",
"B 	c #7591BD",
"C 	c #D3DCE9",
"D 	c #FAFBFC",
"E 	c #BAC8DD",
"F 	c #B8C6DC",
"G 	c #D0D9E7",
"H 	c #7F99C1",
"I 	c #6887B7",
"J 	c #A6B8D4",
"K 	c #F7F9FB",
"L 	c #C2CEE1",
"M 	c #6E8CBA",
"N 	c #869FC4",
"O 	c #E8EDF3",
"P 	c #FFFFFF",
"Q 	c #E9EDF3",
"R 	c #99ADCD",
"S 	c #7F9AC1",
"T 	c #CED8E7",
"U 	c #B9C7DD",
"V 	c #718EBB",
"W 	c #6E8CB9",
"X 	c #C3CFE1",
"Y 	c #9FB3D0",
"Z 	c #F6F7FA",
"` 	c #F8F9FB",
" .	c #D7DFEB",
"..	c #859EC4",
"+.	c #90A7CA",
"@.	c #E2E8F1",
"#.	c #A1B5D2",
"$.	c #6988B7",
"%.	c #7B96BF",
"&.	c #DCE3ED",
"*.	c #8CA3C7",
"=.	c #6786B6",
"-.	c #6C8AB9",
";.	c #BBCADE",
">.	c #FCFDFD",
",.	c #BECCDF",
"'.	c #CAD5E5",
").	c #C0CDE0",
"!.	c #7995BE",
"~.	c #A7B9D4",
"{.	c #F1F4F7",
"].	c #DEE5EE",
"^.	c #8BA3C7",
"/.	c #90A7C9",
"(.	c #EEF1F7",
"_.	c #D8E0EB",
":.	c #7793BD",
"<.	c #D6DEEA",
"[.	c #F0F3F7",
"}.	c #92A9CA",
"|.	c #8AA2C7",
"1.	c #DDE4EE",
"2.	c #A9BAD5",
"3.	c #CCD6E6",
"4.	c #BDCBDF",
"5.	c #BECBDF",
"6.	c #8AA2C6",
"7.	c #EAEFF4",
"8.	c #7C97C0",
"9.	c #9FB3D1",
"0.	c #EDF0F6",
"a.	c #E4E9F1",
"b.	c #92A9CB",
"c.	c #839DC3",
"d.	c #D4DDEA",
"e.	c #F6F8FA",
"f.	c #A1B5D1",
"g.	c #A3B6D3",
"h.	c #C5D1E2",
"i.	c #6F8DBA",
"j.	c #708EBB",
"k.	c #D0DAE8",
"l.	c #809BC2",
"m.	c #96ACCC",
"n.	c #E7ECF3",
"o.	c #EAEEF4",
"p.	c #88A1C6",
"q.	c #6D8BB9",
"r.	c #FDFDFD",
"s.	c #7D98C1",
"t.	c #CED7E6",
"u.	c #D5DDEA",
"v.	c #7692BD",
"w.	c #7995BF",
"x.	c #D9E1EC",
"y.	c #EDF1F6",
"z.	c #8EA5C8",
"A.	c #90A6C9",
"B.	c #E2E7F0",
"C.	c #EEF2F6",
"D.	c #A5B8D3",
"E.	c #B4C3DA",
"F.	c #8DA5C8",
"G.	c #DAE1EC",
"H.	c #6B89B8",
"I.	c #A6B8D3",
"J.	c #F1F3F7",
"K.	c #E4EAF1",
"L.	c #F5F7F9",
"M.	c #9EB2D0",
"N.	c #A8B9D4",
"O.	c #F8FAFB",
"P.	c #E0E6EF",
"Q.	c #839CC3",
"R.	c #ADBED7",
"S.	c #829CC3",
"T.	c #CFD9E7",
"U.	c #DFE5EF",
"V.	c #7592BD",
"W.	c #6483B5",
"X.	c #6485B6",
"                                                                ",
"                      . + @ # $ $ # @ + %                       ",
"                & * = - - ; ; ; ; ; ; - - = * &                 ",
"              . = - ; ; ; ; ; ; ; ; ; ; ; ; - = +               ",
"            > - ; ; ; ; ; ; ; ; ; ; ; ; ; ; ; ; , >             ",
"          = - ; ; ; ; ; ; ; ; ; ; ; ; ; ; ; ; ; ; - =           ",
"        > - ; ; ; ; ; - ; - ; ; ; ; ; ; ; ; ; ; ; ; - $         ",
"      . - ; ; ; ; ; ' ) ! ~ ; ; ; ; ; ; ; ; - { ] ^ / - *       ",
"    ( = ; ; ; ; ; _ : < [ } | - ; ; ; ; ; - 1 2 3 4 { ; = &     ",
"    5 - ; ; ; ; - 6 < 7 8 9 0 a - ; ; ; ; ' b c d e f ; - *     ",
"    $ ; ; ; ; ; ; g h 7 i j k l ' ; ; ; - m n 7 o p ; ; ; -     ",
"  % - ; ; ; ; ; ' q r s t u o v w ; ; ; / x y 7 z 1 - ; ; - %   ",
"  A - ; ; ; ; ; B C 7 D E m F c G H - ; I J K 8 L M ; ; ; - A   ",
"  $ ; ; ; ; ; - N O P 7 Q R S T c U V ; W X 8 K J f ; ; ; ; $   ",
"  # ; ; ; ; ; ; Y Z 7 k `  ...+.@.o #.$.%.&.7 y *.=.; ; ; ; #   ",
"  - ; ; ; ; ; -.;.>.9 ,.'.` ).!.~.{.].^./.(.7 _.m - ; ; ; ; -   ",
"  - ; ; ; ; ; :.<.7 [.}.|.1.k 2.m ,.c 3.4.d >.5.{ ; ; ; ; ; -   ",
"  # ; ; ; ; =.6.7.7 < 8.$.9.0.a.b.c.d.` k 7 e.f.; ; ; ; ; ; #   ",
"  @ ; ; ; ; I g.c 8 h.i.; j.q e.k.l.m.n.7 P o.p.- ; ; ; ; ; $   ",
"  A - ; ; ; q.).r.` l f ; - s.t.c E m F D 7 u.v.; ; ; ; ; - A   ",
"  % - ; ; - w.x.7 y.z./ ; ; ; A.B.C.D.E.D r E ' ; ; ; ; ; - %   ",
"    - ; ; / F.0.7 G.w.- ; ; ; H.I.J.n.K.7 L.M.; ; ; ; ; ; -     ",
"    * - ; f N.` O.2 -.; ; ; ; =.^ 4.d 8 7 P.Q.- ; ; ; ; - >     ",
"    & = ; { R.z E s.- ; ; ; ; ; - S.T.(.U.g.' ; ; ; ; ; = (     ",
"      . - / V.1 M - ; ; ; ; ; ; ; ; ~ ! l.' ; ; ; ; ; - W.      ",
"        > - ; ; ; ; ; ; ; ; ; ; ; ; - ; - ; ; ; ; ; - $         ",
"          = - ; ; ; ; ; ; ; ; ; ; ; ; ; ; ; ; ; ; - $           ",
"            > - ; ; ; ; ; ; ; ; ; ; ; ; ; ; ; ; , $             ",
"              . = - ; ; ; ; ; ; ; ; ; ; ; ; - $ *               ",
"                ( 5 = - - ; ; ; ; ; ; - - $ * &                 ",
"                      % + @ # $ $ X.$ + .                       ",
"                                                                "};
