/* XPM */
static char * bitcoin64_xpm[] = {
"64 64 259 2",
"  	c None",
". 	c #6484B5",
"+ 	c #6484B4",
"@ 	c #6485B5",
"# 	c #6585B5",
"$ 	c #6383B3",
"% 	c #6383B5",
"& 	c #6585B6",
"* 	c #6586B7",
"= 	c #6786B7",
"- 	c #6686B6",
"; 	c #6787B7",
"> 	c #6586B5",
", 	c #6483B4",
"' 	c #6583B5",
") 	c #6685B5",
"! 	c #6384B4",
"~ 	c #6483B5",
"{ 	c #6584B4",
"] 	c #6484B3",
"^ 	c #6485B6",
"/ 	c #6787B6",
"( 	c #6182B2",
"_ 	c #7894BE",
": 	c #91A8CA",
"< 	c #A0B3D1",
"[ 	c #97ADCD",
"} 	c #7491BC",
"| 	c #6988B7",
"1 	c #708EBA",
"2 	c #7390BC",
"3 	c #6C8BB9",
"4 	c #6584B5",
"5 	c #6A89B8",
"6 	c #95ACCC",
"7 	c #D0D9E7",
"8 	c #F0F3F7",
"9 	c #F7F9FB",
"0 	c #F7F8FB",
"a 	c #B1C2D9",
"b 	c #6E8CBA",
"c 	c #7D98C1",
"d 	c #A8BAD5",
"e 	c #C9D4E4",
"f 	c #D3DCEA",
"g 	c #CFD9E8",
"h 	c #96ACCC",
"i 	c #6888B7",
"j 	c #6383B4",
"k 	c #6686B5",
"l 	c #95ABCC",
"m 	c #E2E8F1",
"n 	c #FEFEFE",
"o 	c #FFFFFF",
"p 	c #EAEEF4",
"q 	c #9AAFCE",
"r 	c #89A2C6",
"s 	c #CFD9E7",
"t 	c #F2F4F8",
"u 	c #97ACCD",
"v 	c #7793BE",
"w 	c #D0D9E8",
"x 	c #D8E0EC",
"y 	c #859FC5",
"z 	c #7995BF",
"A 	c #CCD7E6",
"B 	c #FCFDFD",
"C 	c #E2E8F0",
"D 	c #809AC2",
"E 	c #EFF2F7",
"F 	c #FBFCFD",
"G 	c #C2CEE1",
"H 	c #7592BD",
"I 	c #9EB2D0",
"J 	c #F4F6F9",
"K 	c #CAD5E5",
"L 	c #718EBB",
"M 	c #AEBFD7",
"N 	c #FAFBFC",
"O 	c #EEF1F6",
"P 	c #F8F9FB",
"Q 	c #ABBCD6",
"R 	c #6B8AB9",
"S 	c #BFCCE0",
"T 	c #FDFDFD",
"U 	c #AEBFD8",
"V 	c #708EBB",
"W 	c #B6C5DC",
"X 	c #C6D1E3",
"Y 	c #E6EBF2",
"Z 	c #94AACB",
"` 	c #6887B7",
" .	c #D9E1EC",
"..	c #F1F3F8",
"+.	c #93A9CB",
"@.	c #6686B7",
"#.	c #7F9AC1",
"$.	c #E2E7F0",
"%.	c #EDF0F6",
"&.	c #8CA4C7",
"*.	c #87A0C5",
"=.	c #DAE1ED",
"-.	c #D3DBE9",
";.	c #819BC2",
">.	c #8DA4C8",
",.	c #DFE6EF",
"'.	c #7D98C0",
").	c #6385B5",
"!.	c #F2F5F8",
"~.	c #7895BE",
"{.	c #9CB0CF",
"].	c #EBEFF5",
"^.	c #FAFAFC",
"/.	c #BCC9DE",
"(.	c #728FBB",
"_.	c #A7B9D4",
":.	c #F8FAFB",
"<.	c #C7D2E3",
"[.	c #6F8DBA",
"}.	c #B2C2DA",
"|.	c #D2DCE9",
"1.	c #B4C3DA",
"2.	c #A4B7D3",
"3.	c #C4D0E2",
"4.	c #FDFEFE",
"5.	c #F9FAFC",
"6.	c #728FBC",
"7.	c #CED8E7",
"8.	c #A3B6D3",
"9.	c #7A96BF",
"0.	c #FDFDFE",
"a.	c #E1E7F0",
"b.	c #8EA6C8",
"c.	c #7B97C0",
"d.	c #DDE4EE",
"e.	c #90A7C9",
"f.	c #829CC3",
"g.	c #E5EAF2",
"h.	c #E0E6F0",
"i.	c #8CA4C8",
"j.	c #DFE5EF",
"k.	c #CCD6E6",
"l.	c #7C97C0",
"m.	c #DCE3EE",
"n.	c #7B96C0",
"o.	c #CBD5E5",
"p.	c #6989B8",
"q.	c #A2B5D2",
"r.	c #B5C4DB",
"s.	c #ACBDD6",
"t.	c #C3CFE2",
"u.	c #6E8CB9",
"v.	c #B6C5DB",
"w.	c #FCFCFD",
"x.	c #B4C3DB",
"y.	c #B9C8DD",
"z.	c #ECF0F6",
"A.	c #9EB1D0",
"B.	c #C9D3E4",
"C.	c #A7B8D4",
"D.	c #D1DBE9",
"E.	c #E3E8F1",
"F.	c #ECF0F5",
"G.	c #9CB1CF",
"H.	c #7F99C1",
"I.	c #D1DAE8",
"J.	c #DBE3ED",
"K.	c #88A1C6",
"L.	c #7E99C1",
"M.	c #6786B6",
"N.	c #859FC4",
"O.	c #E8EDF3",
"P.	c #FEFEFF",
"Q.	c #E7ECF3",
"R.	c #9FB3D0",
"S.	c #D2DBE9",
"T.	c #DAE2ED",
"U.	c #92A9CB",
"V.	c #E4E9F1",
"W.	c #C6D1E2",
"X.	c #95AACC",
"Y.	c #F5F7FA",
"Z.	c #7491BD",
"`.	c #93AACB",
" +	c #C4D1E2",
".+	c #7693BD",
"++	c #6B8AB8",
"@+	c #A9BBD5",
"#+	c #F3F5F9",
"$+	c #6D8BB9",
"%+	c #B1C1D9",
"&+	c #FBFBFC",
"*+	c #BAC9DD",
"=+	c #6C8AB9",
"-+	c #F5F7F9",
";+	c #ADBED7",
">+	c #C0CDE0",
",+	c #F7F8FA",
"'+	c #D5DEEA",
")+	c #9AAECE",
"!+	c #849EC4",
"~+	c #D6DFEB",
"{+	c #D6DEEB",
"]+	c #E4EAF2",
"^+	c #819CC3",
"/+	c #D4DDEA",
"(+	c #98ADCE",
"_+	c #E9EDF4",
":+	c #CED7E6",
"<+	c #BECBDF",
"[+	c #6D8CB9",
"}+	c #AFC0D8",
"|+	c #BBC9DE",
"1+	c #F6F8FA",
"2+	c #F1F4F8",
"3+	c #A6B8D4",
"4+	c #6B89B8",
"5+	c #F6F7FA",
"6+	c #89A1C6",
"7+	c #E8EDF4",
"8+	c #8AA3C7",
"9+	c #DEE4EE",
"0+	c #CFD8E7",
"a+	c #9EB3D1",
"b+	c #EDF1F6",
"c+	c #B7C6DC",
"d+	c #7290BC",
"e+	c #6A8AB8",
"f+	c #ACBDD7",
"g+	c #B8C6DC",
"h+	c #9FB3D1",
"i+	c #D5DDEA",
"j+	c #9BAFCE",
"k+	c #7B96BF",
"l+	c #8AA2C6",
"m+	c #E9EEF4",
"n+	c #839DC3",
"o+	c #91A7C9",
"p+	c #B3C3DA",
"q+	c #B3C2DA",
"r+	c #C7D3E4",
"s+	c #A4B6D3",
"t+	c #BECCDF",
"u+	c #6685B6",
"v+	c #E0E6EF",
"w+	c #839CC3",
"x+	c #F1F3F7",
"y+	c #92A8CA",
"z+	c #96ACCD",
"A+	c #99AFCE",
"B+	c #D9E0EC",
"C+	c #B4C4DB",
"D+	c #859EC4",
"E+	c #99ADCD",
"F+	c #7390BB",
"G+	c #6382B4",
"H+	c #6585B4",
"I+	c #6583B4",
"J+	c #6284B5",
"                                                                                                                                ",
"                                                      . + . @ # # @ . $ .                                                       ",
"                                              % . & * = - - - ; ; - - - = > - . %                                               ",
"                                        + # - - - ; ; ; ; ; ; ; ; ; ; ; ; ; ; - - - # .                                         ",
"                                    , # - ; ; ; ; ; ; ; ; ; ; ; ; ; ; ; ; ; ; ; ; ; ; - # ,                                     ",
"                                ' ) - ; ; ; ; ; ; ; ; ; ; ; ; ; ; ; ; ; ; ; ; ; ; ; ; ; ; - ) ,                                 ",
"                            ! & - ; ; ; ; ; ; ; ; ; ; ; ; ; ; ; ; ; ; ; ; ; ; ; ; ; ; ; ; ; ; - & !                             ",
"                          ~ # ; ; ; ; ; ; ; ; ; ; ; ; ; ; ; ; ; ; ; ; ; ; ; ; ; ; ; ; ; ; ; ; ; - # .                           ",
"                        # - ; ; ; ; ; ; ; ; ; ; ; ; ; ; ; ; ; ; ; ; ; ; ; ; ; ; ; ; ; ; ; ; ; ; ; ; - #                         ",
"                      . - ; ; ; ; ; ; ; ; ; ; ; ; ; ; ; ; ; ; ; ; ; ; ; ; ; ; ; ; ; ; ; ; ; ; ; ; ; ; - .                       ",
"                    # - ; ; ; ; ; ; ; ; ; ; ; ; ; ; ; ; ; ; ; ; ; ; ; ; ; ; ; ; ; ; ; ; ; ; ; ; ; ; ; ; - {                     ",
"                  . - ; ; ; ; ; ; ; ; ; ; ; ; ; ; ; ; ; ; ; ; ; ; ; ; ; ; ; ; ; ; ; ; ; ; ; ; ; ; ; ; ; ; - +                   ",
"                # - ; ; ; ; ; ; ; ; ; ; ; ; ; ; ; ; ; ; ; ; ; ; ; ; ; ; ; ; ; ; ; ; ; ; ; ; ; ; ; ; ; ; ; ; - #                 ",
"              ] - ; ; ; ; ; ; ; ; ; ; ; ; ; ; ; ; ; ; ; ; ; ; ; ; ; ; ; ; ; ; ; ; ; ; ; ; ; ; ; ; ; ; ; ; ; ; - ^               ",
"            ! # ; ; ; ; ; ; ; ; ; ; ; ; ; ; - / ; ; ; - ; ; ; ; ; ; ; ; ; ; ; ; ; ; ; ; ; ; ; ; ; ; ; ; ; ; ; ; ) (             ",
"            # ; ; ; ; ; ; ; ; ; ; ; ; ; ; ; _ : < < [ } - ; ; ; ; ; ; ; ; ; ; ; ; ; ; ; ; ; - | 1 2 2 3 - ; ; ; - 4             ",
"          + - ; ; ; ; ; ; ; ; ; ; ; ; ; 5 6 7 8 9 0 8 a b ; ; ; ; ; ; ; ; ; ; ; ; ; ; ; ; ; c d e f g h i ; ; ; ; - j           ",
"          k ; ; ; ; ; ; ; ; ; ; ; ; ; ; l m n o o o o p q i ; ; ; ; ; ; ; ; ; ; ; ; ; ; ; r s 0 n n t u ; ; ; ; ; ; )           ",
"        + - ; ; ; ; ; ; ; ; ; ; ; ; - v w n o o o o o n x y - ; ; ; ; ; ; ; ; ; ; ; ; - z A B o o n C D - ; ; ; ; ; - ,         ",
"        ^ ; ; ; ; ; ; ; ; ; ; ; ; ; ; : E o o o o n o o F G H - ; ; ; ; ; ; ; ; ; ; ; ; I J o o o n K L ; ; ; ; ; ; ; #         ",
"      . - ; ; ; ; ; ; ; ; ; ; ; ; ; | M N o o o n O P o o J Q R ; ; ; ; ; ; ; ; ; ; ; 3 S T o o o N U | ; ; ; ; ; ; ; - +       ",
"      # ; ; ; ; ; ; ; ; ; ; ; ; ; ; V K n o o o P W X F o n Y Z ` ; ; ; ; ; ; ; ; ; - _  .n o o o ..+.@.; ; ; ; ; ; ; - #       ",
"      - ; ; ; ; ; ; ; ; ; ; ; ; ; - #.$.n o o o %.&.*.=.n o n -.;.- ; ; ; ; ; ; ; ; / >.%.o o o n ,.'.- ; ; ; ; ; ; ; ; -       ",
"    ).- ; ; ; ; ; ; ; ; ; ; ; ; ; ; u !.o o o n  .~.i {.].o o ^./.(.; ; ; ; ; ; ; ; i _.:.o o o n <.[.; ; ; ; ; ; ; ; ; - %     ",
"    . - ; ; ; ; ; ; ; ; ; ; ; ; ; 5 }.F o o o n |.H ; [.1.0 o o 8 2.5 ; ; ; ; ; ; ; b 3.4.o o o 5.Q i ; ; ; ; ; ; ; ; ; - .     ",
"    & ; ; ; ; ; ; ; ; ; ; ; ; ; ; 6.7.n o o o o 8 8.5 - 9.K 0.o n a.b.; ; ; ; ; ; - c.d.n o o o E e.; ; ; ; ; ; ; ; ; ; ; &     ",
"    > ; ; ; ; ; ; ; ; ; ; ; ; ; - f.g.o o o o o n h.>.; ; i.j.n o 0.k.l.- ; ; ; ; ; : 8 o o o n m.n.; ; ; ; ; ; ; ; ; ; ; *     ",
"  . - ; ; ; ; ; ; ; ; ; ; ; ; ; / q J o o o o o o 0.o.n.- p.q.E o o 9 r.[.; ; ; ; | s.N o o o 0.t.u.; ; ; ; ; ; ; ; ; ; ; - .   ",
"  % - ; ; ; ; ; ; ; ; ; ; ; ; ; 5 v.w.o o o n n o o 9 x.[.; L y.5.o o z.A.| ; ; ; 1 B.n o o o P C.` ; ; ; ; ; ; ; ; ; ; ; - +   ",
"  . - ; ; ; ; ; ; ; ; ; ; ; ; ; } D.n o o o 5.E.N o o F.G.i - H.I.4.o n J.K.- ; - L.a.n o o o %.&.M.; ; ; ; ; ; ; ; ; ; ; - .   ",
"  @ - ; ; ; ; ; ; ; ; ; ; ; ; - N.O.o o o P.Q.R.S.n o n T.*.- ; U.V.n o w.W.v - M.X.t o o o n  ._ - ; ; ; ; ; ; ; ; ; ; ; - @   ",
"  { - ; ; ; ; ; ; ; ; ; ; ; ; ; I Y.o o o n I.Z.`.g.n o F  +.+- ++@+#+o o Y.U $+| %+&+o o o T S 3 ; ; ; ; ; ; ; ; ; ; ; ; ; #   ",
"  # ; ; ; ; ; ; ; ; ; ; ; ; ; ++*+B o o o F v.5 =+Q J o o -+;+3 - } >+&+o n O.[ 2 A n o o o ,+q.; ; ; ; ; ; ; ; ; ; ; ; ; - {   ",
"  @ - ; ; ; ; ; ; ; ; ; ; ; ; .+'+n o o o J )+/ - H G F o n Q.h ` - !+~+n o n {+I V.n o o o p K.- ; ; ; ; ; ; ; ; ; ; ; ; - ~   ",
"  j - ; ; ; ; ; ; ; ; ; ; ; - K.p o o o o ]+^+- ; - y x n o n /+f.- ` (+_+n o N E.P o o o n '+.+; ; ; ; ; ; ; ; ; ; ; ; ; - .   ",
"  % - ; ; ; ; ; ; ; ; ; ; ; ` q.,+o o o n :+(.; ; ; i q p P.o N <+2 ; [+}+Y.o o n n o o o B |+++; ; ; ; ; ; ; ; ; ; ; ; ; - $   ",
"  , - ; ; ; ; ; ; ; ; ; ; ; 3 S T o o o &+%+p.; ; ; ; b %+1+o o 2+3+4+- _ <.w.o o o o o o 5+I ; ; ; ; ; ; ; ; ; ; ; ; ; ; - .   ",
"    * ; ; ; ; ; ; ; ; ; ; ; z  .n o o o t l ; ; ; ; ; - z e B o n m e.; / 6+m.n o o o o o 7+y - ; ; ; ; ; ; ; ; ; ; ; ; ; >     ",
"    & ; ; ; ; ; ; ; ; ; ; M.i.%.o o o n a.H.- ; ; ; ; ; ; 8+9+n o 0.0+c - | a+b+o o o o n S.} ; ; ; ; ; ; ; ; ; ; ; ; ; ; &     ",
"    . - ; ; ; ; ; ; ; ; ; ` C.P o o o n e 1 ; ; ; ; ; ; ; | < O o o P c+V ; d+7.n o o o w.c+e+; ; ; ; ; ; ; ; ; ; ; ; ; - .     ",
"    ! - ; ; ; ; ; ; ; ; ; u.t.0.o o o N f+| ; ; ; ; ; ; ; ; V g+P o o b+h+| H i+n o o o J j+/ ; ; ; ; ; ; ; ; ; ; ; ; ; - ).    ",
"      - ; ; ; ; ; ; ; ; - k+m.n o o o 8 : / ; ; ; ; ; ; ; ; - c 0+0.o n d.l+K.m+o o o n g.n+- ; ; ; ; ; ; ; ; ; ; ; ; ; -       ",
"      # - ; ; ; ; ; ; ; / e.E o o o n d.c.- ; ; ; ; ; ; ; ; ; ; o+E.n o w.e p+1+o o o n 0+2 ; ; ; ; ; ; ; ; ; ; ; ; ; - #       ",
"      + - ; ; ; ; ; ; ; i Q 5.o o o 0.3.b ; ; ; ; ; ; ; ; ; ; ; ++_.t o o P b+4.o o o F q+5 ; ; ; ; ; ; ; ; ; ; ; ; ; - +       ",
"        # ; ; ; ; ; ; ; [.r+n o o o 1+s+` ; ; ; ; ; ; ; ; ; ; ; M.2 t+N o o n o o o o 2+h / ; ; ; ; ; ; ; ; ; ; ; ; ; u+        ",
"        , - ; ; ; ; ; - c v+n o o n /+L.- ; ; ; ; ; ; ; ; ; ; ; ; - w+i+n o o o o o n /+9.- ; ; ; ; ; ; ; ; ; ; ; ; - )         ",
"          ) ; ; ; ; ; ; Z x+n n N x y+` ; ; ; ; ; ; ; ; ; ; ; ; ; ; ` z+Q.n o o o n g.A+i ; ; ; ; ; ; ; ; ; ; ; ; ; )           ",
"          , - ; ; ; ; i q B+d.i+C+D+i ; ; ; ; ; ; ; ; ; ; ; ; ; ; ; ; 3 ;+E 0 9 8 S.E+R ; ; ; ; ; ; ; ; ; ; ; ; ; - '           ",
"            & ; ; ; ; - [.z z H ++- ; ; ; ; ; ; ; ; ; ; ; ; ; ; ; ; ; - F+h < < U.z ` ; ; ; ; ; ; ; ; ; ; ; ; ; - &             ",
"            G+) ; ; ; ; ; ; ; ; ; ; ; ; ; ; ; ; ; ; ; ; ; ; ; ; ; ; ; ; - ; ; ; ; - ; ; ; ; ; ; ; ; ; ; ; ; ; ; # G+            ",
"              ] - ; ; ; ; ; ; ; ; ; ; ; ; ; ; ; ; ; ; ; ; ; ; ; ; ; ; ; ; ; ; ; ; ; ; ; ; ; ; ; ; ; ; ; ; ; ; - ,               ",
"                # - ; ; ; ; ; ; ; ; ; ; ; ; ; ; ; ; ; ; ; ; ; ; ; ; ; ; ; ; ; ; ; ; ; ; ; ; ; ; ; ; ; ; ; ; - #                 ",
"                  . - ; ; ; ; ; ; ; ; ; ; ; ; ; ; ; ; ; ; ; ; ; ; ; ; ; ; ; ; ; ; ; ; ; ; ; ; ; ; ; ; ; ; - +                   ",
"                    { - ; ; ; ; ; ; ; ; ; ; ; ; ; ; ; ; ; ; ; ; ; ; ; ; ; ; ; ; ; ; ; ; ; ; ; ; ; ; ; ; - #                     ",
"                      . - ; ; ; ; ; ; ; ; ; ; ; ; ; ; ; ; ; ; ; ; ; ; ; ; ; ; ; ; ; ; ; ; ; ; ; ; ; ; - #                       ",
"                        . - ; ; ; ; ; ; ; ; ; ; ; ; ; ; ; ; ; ; ; ; ; ; ; ; ; ; ; ; ; ; ; ; ; ; ; ; - H+                        ",
"                          . # ; ; ; ; ; ; ; ; ; ; ; ; ; ; ; ; ; ; ; ; ; ; ; ; ; ; ; ; ; ; ; ; ; - # .                           ",
"                            ! # - ; ; ; ; ; ; ; ; ; ; ; ; ; ; ; ; ; ; ; ; ; ; ; ; ; ; ; ; ; ; - 4 (                             ",
"                                + ) - ; ; ; ; ; ; ; ; ; ; ; ; ; ; ; ; ; ; ; ; ; ; ; ; ; ; - # I+                                ",
"                                    + ) - ; ; ; ; ; ; ; ; ; ; ; ; ; ; ; ; ; ; ; ; ; ; - # +                                     ",
"                                        . # - - - ; ; ; ; ; ; ; ; ; ; ; ; ; ; - - - # 4                                         ",
"                                              % . & > = - - - ; ; - - - @.* - . %                                               ",
"                                                      . $ . ~ # # @ . + J+                                                      ",
"                                                                                                                                "};
