/* XPM */
static char * bitcoin16_xpm[] = {
"16 16 78 1",
" 	c None",
".	c #6283B2",
"+	c #6382B4",
"@	c #6483B4",
"#	c #6585B5",
"$	c #6586B5",
"%	c #6687B6",
"&	c #6484B5",
"*	c #6686B6",
"=	c #6787B7",
"-	c #7793BE",
";	c #7E99C1",
">	c #6989B8",
",	c #6E8CBA",
"'	c #7592BD",
")	c #7894BE",
"!	c #C6D1E3",
"~	c #D5DDEA",
"{	c #93A9CB",
"]	c #6D8CB9",
"^	c #AEBFD8",
"/	c #B2C2D9",
"(	c #6F8DB9",
"_	c #E8EDF3",
":	c #D4DCE9",
"<	c #C3CFE2",
"[	c #809AC2",
"}	c #DEE4EE",
"|	c #B3C2DA",
"1	c #6A89B8",
"2	c #6988B7",
"3	c #AEBFD7",
"4	c #F2F4F8",
"5	c #BBC9DD",
"6	c #BAC8DD",
"7	c #B5C4DB",
"8	c #728FBB",
"9	c #98ADCD",
"0	c #E7EBF3",
"a	c #6787B6",
"b	c #6687B7",
"c	c #718EBB",
"d	c #C9D4E4",
"e	c #E7ECF2",
"f	c #CFD8E7",
"g	c #ADBDD7",
"h	c #C3CFE1",
"i	c #A6B8D3",
"j	c #B7C6DC",
"k	c #DFE5EF",
"l	c #819AC2",
"m	c #6786B6",
"n	c #DEE5EE",
"o	c #B8C7DC",
"p	c #A5B7D4",
"q	c #ACBDD6",
"r	c #CED8E7",
"s	c #CBD5E5",
"t	c #96ACCC",
"u	c #E6EBF2",
"v	c #99AECD",
"w	c #B4C3DA",
"x	c #AFBFD8",
"y	c #6A89B7",
"z	c #819BC2",
"A	c #7F99C1",
"B	c #C2CFE1",
"C	c #E9EDF3",
"D	c #94AACB",
"E	c #B3C3DA",
"F	c #B1C1D9",
"G	c #92A8CA",
"H	c #D4DDEA",
"I	c #C7D2E3",
"J	c #7994BE",
"K	c #7693BD",
"L	c #6F8DBA",
"M	c #6281B2",
"      .++.      ",
"    @#$%%$#@    ",
"   &***====*&   ",
"  &*=-;>==*,'#  ",
" @**)!~{==]^/(@ ",
" #=={_:<[*[}|1# ",
".$=2345678909a$.",
"+b=cdefghijkl*b+",
"+bm[nophqresc=b+",
".$atuv8w564x2=$.",
" #y/nz*AB:CD==# ",
" @(EF,==GHIJ**@ ",
"  #KL*==>;-=*&  ",
"   &*====***&   ",
"    @#$%%$#@    ",
"      .++M      "};
